# Blender 4.4.1
# www.blender.org
mtllib silla.mtl
g export.009_export.009
v -0.223218 0.583516 -0.190395
v -0.235817 0.599616 -0.151395
v -0.196117 0.567316 -0.156495
v -0.237817 0.599616 -0.190395
v 0.208684 0.583516 -0.191995
v 0.181884 0.567316 -0.157795
v 0.223283 0.599616 -0.191995
v 0.237783 0.631916 -0.192096
v 0.236183 0.631916 -0.144995
v 0.221583 0.599616 -0.153095
v 0.181884 0.599618 -0.133395
v 0.196483 0.631916 -0.125395
v 0.236083 0.631916 -0.144995
v 0.181783 0.567316 -0.157795
v 0.123783 0.599618 -0.142995
v -0.137917 0.599618 -0.142095
v -0.137917 0.631916 -0.133895
v -0.196017 0.599618 -0.132095
v -0.007117 0.599618 -0.142495
v -0.007117 0.631916 -0.134395
v 0.123783 0.696416 -0.126695
v 0.123783 0.631916 -0.134795
v -0.007016 0.696416 -0.126195
v -0.137917 0.696416 -0.125795
v -0.225017 0.696416 -0.115695
v -0.225017 0.793217 -0.115695
v -0.210517 0.631916 -0.123895
v -0.137917 0.793217 -0.125795
v -0.123317 0.857817 -0.133995
v -0.007016 0.793217 -0.126195
v 0.123783 0.793217 -0.126695
v 0.109183 0.857817 -0.134795
v -0.007117 0.857817 -0.134395
v -0.123417 0.890117 -0.142095
v -0.007117 0.890117 -0.142495
v 0.109183 0.890117 -0.142895
v -0.007117 0.922316 -0.160795
v -0.123417 0.922316 -0.160395
v -0.007217 0.922316 -0.189895
v -0.123517 0.922316 -0.189495
v -0.196117 0.906217 -0.150395
v -0.196217 0.906217 -0.189195
v -0.235817 0.873917 -0.151395
v -0.196017 0.873917 -0.132095
v -0.210517 0.841617 -0.123895
v -0.250317 0.841617 -0.143295
v -0.264817 0.793217 -0.135095
v -0.266817 0.793217 -0.190295
v -0.252317 0.841617 -0.190295
v 0.237783 0.841617 -0.192096
v -0.237817 0.873917 -0.190395
v 0.223283 0.873917 -0.191995
v 0.181683 0.906217 -0.190595
v 0.108983 0.922316 -0.190295
v 0.181884 0.906217 -0.151695
v 0.221583 0.873917 -0.153095
v 0.236183 0.841617 -0.144995
v 0.181884 0.873917 -0.133395
v 0.236083 0.841617 -0.144995
v 0.196483 0.841617 -0.125395
v 0.250684 0.793217 -0.136895
v 0.250684 0.696416 -0.136895
v 0.252283 0.793217 -0.192096
v 0.211083 0.793217 -0.117295
v 0.211083 0.696416 -0.117295
v 0.252283 0.696416 -0.192096
v -0.266817 0.696416 -0.190295
v -0.252317 0.631916 -0.190295
v -0.264817 0.696416 -0.135095
v -0.250317 0.631916 -0.143295
v 0.109183 0.922316 -0.161195
v 0.177383 0.454817 0.256905
v -0.198816 0.465816 0.238505
v 0.185783 0.465816 0.237405
v 0.172984 0.440017 0.267105
v -0.190117 0.454817 0.258205
v 0.172984 0.411016 0.267105
v 0.219283 0.411016 0.159705
v 0.223983 0.411016 -0.114295
v 0.170983 0.411016 -0.161795
v 0.219283 0.457717 0.159705
v 0.244283 0.457715 -0.003095
v 0.244283 0.411016 -0.003095
v 0.223983 0.468916 -0.114295
v -0.239317 0.468916 -0.112695
v -0.258817 0.457715 -0.001295
v 0.170983 0.468916 -0.161795
v -0.186717 0.411016 -0.160495
v -0.186717 0.468916 -0.160495
v -0.239317 0.411016 -0.112695
v -0.185717 0.411016 0.268305
v -0.258817 0.411016 -0.001295
v -0.232817 0.411016 0.161305
v -0.232817 0.457717 0.161305
v -0.185717 0.440017 0.268305
vn -0.3783 -0.9062 -0.1891
vn -0.3377 -0.9267 -0.1649
vn -0.7693 -0.6358 0.0628
vn -0.8637 -0.5025 0.0393
vn -0.3782 -0.9062 -0.1891
vn 0.2207 -0.9378 -0.2680
vn -0.0000 -0.0000 -1.0000
vn 0.4944 -0.8632 -0.1020
vn 0.9588 -0.2830 0.0236
vn 0.9349 -0.3535 0.0314
vn 0.8639 -0.5026 0.0314
vn 0.7693 -0.6358 0.0628
vn -0.0000 1.0000 -0.0000
vn -0.0707 0.9975 0.0003
vn -0.1414 0.9900 -0.0000
vn -0.3606 0.9327 -0.0000
vn -0.4969 0.8678 0.0079
vn -0.7883 0.6148 0.0237
vn -0.9951 0.0940 0.0313
vn -0.9434 0.3302 0.0314
vn -0.9816 0.1884 0.0314
vn -0.9283 0.3698 0.0393
vn -0.7841 0.6194 0.0392
vn -0.0000 0.0472 -0.9989
vn 0.7377 0.6749 0.0157
vn 0.4250 0.9052 -0.0000
vn 0.4315 0.9021 -0.0000
vn -0.0000 0.0236 -0.9997
vn 0.8400 0.5417 0.0314
vn 0.9286 0.3698 0.0315
vn 0.9436 0.3303 0.0236
vn 0.9897 0.1412 0.0236
vn 0.9937 -0.1095 0.0235
vn 0.9897 0.1415 0.0236
vn -0.9586 -0.2829 0.0314
vn -0.9883 -0.1490 0.0314
vn -0.9970 -0.0707 0.0314
vn -0.9346 -0.3534 0.0393
vn 0.0707 0.9975 -0.0000
vn 0.1414 0.9900 -0.0000
vn -0.0000 0.9328 -0.3604
vn -0.0157 0.0550 -0.9984
vn -0.0000 0.7885 0.6150
vn -0.0000 0.8730 0.4877
vn 0.0002 0.8731 0.4876
vn -0.0000 0.6833 0.7301
vn -0.0000 0.3929 0.9196
vn -0.0000 0.1963 0.9805
vn -0.0001 -0.0000 1.0000
vn -0.0000 -0.0000 1.0000
vn 0.0709 -0.4175 0.9059
vn 0.3935 -0.4484 0.8025
vn 0.1493 -0.2435 0.9583
vn 0.0553 -0.5056 0.8610
vn 0.4246 -0.2674 0.8650
vn -0.0472 -0.5115 0.8580
vn 0.0551 -0.5353 0.8428
vn -0.0708 -0.5350 0.8419
vn -0.1253 -0.4153 0.9010
vn 0.0705 -0.1881 0.9796
vn 0.0001 -0.5123 0.8588
vn -0.0000 -0.1733 0.9849
vn -0.0784 -0.1804 0.9805
vn -0.0549 -0.0783 0.9954
vn -0.0000 -0.0394 0.9992
vn 0.0627 -0.0625 0.9961
vn -0.2198 -0.0628 0.9735
vn -0.1251 0.1173 0.9852
vn -0.1492 -0.2120 0.9658
vn 0.0472 0.0393 0.9981
vn 0.0473 0.1655 0.9851
vn -0.0000 0.0785 0.9969
vn -0.0472 0.0314 0.9984
vn -0.0315 0.1732 0.9844
vn -0.0000 0.1961 0.9806
vn 0.0158 0.3700 0.9289
vn -0.0000 0.3700 0.9290
vn -0.0079 0.4090 0.9125
vn 0.0001 0.4936 0.8697
vn -0.0000 0.4936 0.8697
vn -0.1257 0.4871 0.8642
vn -0.3951 0.4108 0.8217
vn -0.1259 0.3698 0.9205
vn -0.2192 0.2897 0.9317
vn -0.4163 0.3063 0.8561
vn -0.4329 0.0866 0.8973
vn 0.1802 0.3761 0.9089
vn 0.4030 0.4188 0.8138
vn 0.1257 0.4871 0.8642
vn 0.4030 0.4187 0.8138
vn 0.4165 0.3458 0.8408
vn 0.2282 0.2673 0.9362
vn 0.4335 0.1813 0.8827
vn 0.1727 0.0864 0.9812
vn 0.4400 -0.0628 0.8958
vn 0.1727 -0.0863 0.9812
vn 0.4400 -0.0630 0.8958
vn -0.4094 -0.3307 0.8503
vn -0.4337 -0.1341 0.8910
vn -0.3835 -0.4774 0.7905
vn -0.0000 0.4937 0.8697
vn 0.9196 -0.0000 0.3930
vn 0.9195 -0.0000 0.3930
vn 0.9548 -0.0000 0.2974
vn -0.0000 -1.0000 -0.0000
vn 0.2672 -0.8170 -0.5109
vn 0.9618 -0.0000 0.2737
vn 0.9992 -0.0000 0.0393
vn 0.9980 -0.0000 -0.0629
vn 0.8729 -0.0000 -0.4878
vn 0.8730 -0.0000 -0.4876
vn -0.0000 0.9980 0.0629
vn 0.1892 0.5753 -0.7958
vn -0.0000 0.9995 0.0315
vn -0.0000 0.9989 0.0472
vn -0.1967 -0.5744 -0.7946
vn -0.4500 0.3318 -0.8291
vn -0.8782 -0.0000 -0.4783
vn -0.9989 -0.0000 0.0472
vn -0.9980 -0.0000 -0.0628
vn -0.9167 -0.0000 0.3996
vn -0.9354 0.0001 0.3537
vn -0.9719 -0.0000 0.2352
vn -0.0000 0.9995 -0.0315
vn -0.0000 0.9980 -0.0628
vn -0.0000 0.9948 -0.1019
vt 0.000000 0.000000
vt 1.654300 0.271800
vt 1.797400 0.274000
vt 1.707500 0.388100
vt 1.653000 0.157300
vt 1.850600 0.390200
vt 1.442700 0.272800
vt 0.492700 0.272400
vt 0.280800 0.156700
vt 0.282100 0.271200
vt 0.493100 0.388600
vt 0.967700 0.272600
vt 0.968100 0.388800
vt 1.443100 0.389000
vt 1.443500 0.622400
vt 0.968500 0.622200
vt 0.493600 0.622000
vt 0.177400 0.620800
vt 0.177400 0.972200
vt 0.229800 0.387500
vt 0.493600 0.973400
vt 0.545900 1.208500
vt 0.968500 0.973600
vt 1.443500 0.973800
vt 1.390300 1.208900
vt 0.968100 1.208700
vt 0.545500 1.326500
vt 0.967700 1.326700
vt 1.389900 1.326900
vt 0.966700 1.445800
vt 0.544500 1.445600
vt 0.281200 1.385900
vt 0.136900 1.268800
vt 0.282100 1.266800
vt 0.229800 1.148800
vt 0.084600 1.150800
vt 0.032200 0.974200
vt 1.654300 1.267400
vt 1.797400 1.269500
vt 1.653300 1.386400
vt 1.850600 1.151500
vt 1.707500 1.149400
vt 1.903800 0.975000
vt 1.760700 0.972900
vt 1.903800 0.623600
vt 1.760700 0.621500
vt 0.084600 0.389500
vt 0.032200 0.622900
vt 0.136900 0.273300
vt 1.388900 1.445900
vt 0.172300 0.913400
vt 0.073500 0.860900
vt 0.567500 0.652200
vt 0.021600 0.790200
vt 0.021600 0.652200
vt 1.863700 0.588100
vt 1.770800 1.180500
vt 1.791200 0.183000
vt 1.599000 0.009500
vt 1.600700 1.571000
vt 0.567500 0.874600
vt 1.352400 0.874600
vt 1.352400 0.652200
vt 1.853500 0.652200
vt 1.853500 0.928200
vt 0.103100 0.237300
vt 0.295300 0.063800
vt 1.790000 0.237400
vt 1.862500 0.642500
vt 0.031500 0.675800
vt 0.240100 0.675800
vt 0.031500 0.904600
vt 0.030600 0.642400
vt 0.240100 0.904600
vt 1.654700 0.675800
vt 1.654700 0.904600
vt 1.597800 0.063900
vt 1.863300 0.675800
vt 1.863300 0.904600
vt 0.104300 0.183000
vt 0.296500 0.009500
vt 0.294800 1.571000
vt 0.124700 1.180500
vt 0.031800 0.588100
vt 0.541700 0.652200
vt 0.541700 0.874600
vt 0.040600 0.652200
vt 0.040600 0.928200
vt 1.820600 0.860900
vt 1.326600 0.652200
vt 1.872500 0.790200
vt 1.720200 0.913300
vt 1.872500 0.652200
vt 1.326600 0.874600
vt 0.123500 1.234800
vt 1.769600 1.234900
vt 0.246600 1.517600
vt 1.646900 1.516400
s 1
usemtl fake_mat_71_71_71_255
f 1/1/1 3/1/2 2/1/3
f 2/1/3 4/1/4 1/1/1
f 3/1/2 1/1/5 6/1/6
f 4/1/7 7/1/7 1/1/7
f 5/1/8 6/1/6 1/1/5
f 5/1/7 1/1/7 7/1/7
f 8/1/9 9/1/10 7/1/11
f 8/1/7 7/1/7 4/1/7
f 9/1/10 10/1/12 7/1/11
f 7/1/11 10/1/12 5/1/8
f 5/1/8 10/1/12 6/1/6
f 37/1/13 39/1/13 38/1/14
f 40/1/15 38/1/14 39/1/13
f 38/1/14 40/1/15 41/1/16
f 42/1/17 41/1/16 40/1/15
f 41/1/16 42/1/17 43/1/18
f 47/1/19 46/1/20 48/1/21
f 48/1/21 46/1/20 49/1/22
f 46/1/20 43/1/18 49/1/22
f 49/1/7 50/1/7 48/1/7
f 52/1/7 50/1/7 49/1/7
f 51/1/7 52/1/7 49/1/7
f 49/1/22 43/1/18 51/1/23
f 53/1/24 52/1/24 54/1/24
f 52/1/25 53/1/26 55/1/27
f 52/1/28 40/1/28 54/1/28
f 56/1/29 52/1/25 55/1/27
f 52/1/28 51/1/28 40/1/28
f 52/1/25 56/1/29 50/1/30
f 56/1/29 57/1/31 50/1/30
f 61/1/32 62/1/33 63/1/32
f 57/1/31 61/1/34 63/1/34
f 66/1/33 63/1/32 62/1/33
f 63/1/7 66/1/7 67/1/7
f 48/1/7 63/1/7 67/1/7
f 50/1/7 63/1/7 48/1/7
f 50/1/30 57/1/31 63/1/34
f 68/1/35 69/1/36 67/1/37
f 67/1/7 66/1/7 68/1/7
f 69/1/36 47/1/19 67/1/37
f 48/1/21 67/1/37 47/1/19
f 70/1/38 69/1/36 68/1/35
f 2/1/3 70/1/38 4/1/4
f 4/1/4 70/1/38 68/1/35
f 68/1/7 8/1/7 4/1/7
f 66/1/7 8/1/7 68/1/7
f 66/1/33 62/1/33 8/1/9
f 62/1/33 9/1/10 8/1/9
f 71/1/39 55/1/27 54/1/40
f 53/1/26 54/1/40 55/1/27
f 37/1/13 71/1/39 39/1/13
f 54/1/40 39/1/13 71/1/39
f 39/1/41 54/1/41 40/1/41
f 43/1/18 42/1/17 51/1/23
f 51/1/42 42/1/42 40/1/42
f 72/1/43 74/1/44 73/1/45
f 76/1/46 72/1/43 73/1/45
f 72/1/43 76/1/46 75/1/47
f 95/1/48 75/1/47 76/1/46
f 75/1/47 95/1/48 77/1/49
f 91/1/50 77/1/49 95/1/48
usemtl chaise_016___chaise_016:tissus
f 11/2/51 10/3/52 12/4/53
f 11/2/51 14/5/54 10/3/52
f 13/6/55 12/4/53 10/3/52
f 15/7/56 14/5/54 11/2/51
f 15/7/56 16/8/57 14/5/54
f 3/9/58 14/5/54 16/8/57
f 18/10/59 3/9/58 16/8/57
f 18/10/59 16/8/57 17/11/60
f 16/8/57 19/12/61 17/11/60
f 19/12/61 16/8/57 15/7/56
f 19/12/61 15/7/56 20/13/62
f 20/13/62 17/11/60 19/12/61
f 22/14/63 21/15/64 20/13/62
f 23/16/65 20/13/62 21/15/64
f 22/14/63 20/13/62 15/7/56
f 23/16/65 24/17/66 20/13/62
f 17/11/60 20/13/62 24/17/66
f 25/18/67 24/17/66 26/19/68
f 25/18/67 27/20/69 24/17/66
f 28/21/70 26/19/68 24/17/66
f 27/20/69 17/11/60 24/17/66
f 24/17/66 23/16/65 28/21/70
f 26/19/68 28/21/70 29/22/71
f 28/21/70 30/23/72 29/22/71
f 30/23/72 28/21/70 23/16/65
f 30/23/72 23/16/65 31/24/73
f 31/24/73 32/25/74 30/23/72
f 33/26/75 30/23/72 32/25/74
f 33/26/75 29/22/71 30/23/72
f 29/22/71 33/26/75 34/27/76
f 35/28/77 34/27/76 33/26/75
f 33/26/75 32/25/74 35/28/77
f 35/28/77 36/29/78 37/30/79
f 36/29/78 35/28/77 32/25/74
f 37/30/79 38/31/80 35/28/77
f 34/27/76 35/28/77 38/31/80
f 38/31/80 41/32/81 34/27/76
f 43/33/82 44/34/83 41/32/81
f 44/34/83 34/27/76 41/32/81
f 45/35/84 29/22/71 44/34/83
f 44/34/83 43/33/82 45/35/84
f 44/34/83 29/22/71 34/27/76
f 46/36/85 45/35/84 43/33/82
f 45/35/84 46/36/85 26/19/68
f 45/35/84 26/19/68 29/22/71
f 47/37/86 26/19/68 46/36/85
f 58/38/87 56/39/88 55/40/89
f 56/39/90 58/38/87 59/41/91
f 59/41/91 60/42/92 61/43/93
f 60/42/92 59/41/91 58/38/87
f 61/43/93 64/44/94 62/45/95
f 64/44/94 61/43/93 60/42/92
f 64/44/94 31/24/73 65/46/96
f 65/46/96 62/45/95 64/44/94
f 31/24/73 64/44/94 32/25/74
f 64/44/94 60/42/92 32/25/74
f 21/15/64 65/46/96 31/24/73
f 21/15/64 12/4/53 65/46/96
f 12/4/53 13/6/55 65/46/96
f 62/45/97 65/46/96 13/6/55
f 70/47/98 27/20/69 69/48/99
f 69/48/99 25/18/67 47/37/86
f 25/18/67 69/48/99 27/20/69
f 2/49/100 18/10/59 70/47/98
f 27/20/69 70/47/98 18/10/59
f 32/25/74 60/42/92 58/38/87
f 58/38/87 55/40/89 36/29/78
f 32/25/74 58/38/87 36/29/78
f 71/50/101 36/29/78 55/40/89
f 71/50/101 37/30/79 36/29/78
f 26/19/68 47/37/86 25/18/67
f 21/15/64 31/24/73 23/16/65
f 27/20/69 18/10/59 17/11/60
f 22/14/63 12/4/53 21/15/64
f 15/7/56 11/2/51 22/14/63
f 22/14/63 11/2/51 12/4/53
f 2/49/100 3/9/58 18/10/59
f 74/51/102 72/52/103 78/53/104
f 75/54/103 77/55/103 72/52/103
f 78/53/104 72/52/103 77/55/103
f 83/56/105 78/57/105 79/58/105
f 80/59/106 79/58/105 78/57/105
f 77/60/105 80/59/106 78/57/105
f 81/61/107 78/53/104 82/62/108
f 81/61/107 74/51/102 78/53/104
f 83/63/109 82/62/108 78/53/104
f 79/64/110 84/65/111 83/63/109
f 82/62/108 83/63/109 84/65/111
f 84/66/112 87/67/113 85/68/114
f 85/68/114 86/69/115 84/66/112
f 79/70/110 80/71/106 84/72/111
f 82/73/115 84/66/112 86/69/115
f 87/74/113 84/72/111 80/71/106
f 80/71/106 88/75/116 87/74/113
f 89/76/117 87/74/113 88/75/116
f 89/77/117 85/68/114 87/67/113
f 88/75/116 90/78/118 89/76/117
f 85/79/118 89/76/117 90/78/118
f 90/80/105 88/81/116 91/82/105
f 93/83/105 90/80/105 91/82/105
f 92/84/105 90/80/105 93/83/105
f 92/85/119 86/86/120 90/87/118
f 85/88/118 90/87/118 86/86/120
f 76/89/121 93/90/122 95/91/121
f 73/92/121 93/90/122 76/89/121
f 91/93/121 95/91/121 93/90/122
f 94/94/123 93/90/122 73/92/121
f 93/90/122 94/94/123 92/85/119
f 81/95/124 94/96/125 74/97/126
f 73/98/126 74/97/126 94/96/125
f 94/96/125 81/95/124 86/69/115
f 86/86/120 92/85/119 94/94/123
f 91/82/105 80/59/106 77/60/105
f 88/81/116 80/59/106 91/82/105
f 82/73/115 86/69/115 81/95/124
g export.041_export.041
v 0.019502 0.072049 0.104344
v 0.020302 0.007249 0.343244
v -0.022398 0.072049 0.104444
v 0.020302 -0.009851 0.343244
v 0.019402 -0.009851 0.090044
v 0.019402 0.072048 0.090044
v 0.272602 0.007249 0.089144
v 0.033702 0.072048 0.089944
v 0.019302 0.072048 0.048144
v 0.272503 0.007249 0.047244
v 0.019203 0.072048 0.033844
v 0.019302 -0.009851 0.048144
v 0.033502 0.072048 0.048044
v 0.018402 -0.009851 -0.205056
v -0.022598 -0.009851 0.048244
v -0.022498 -0.009851 0.090144
v 0.272503 -0.009851 0.047244
v 0.272602 -0.009851 0.089144
v -0.022398 -0.009851 0.104444
v -0.275698 -0.009851 0.091044
v -0.275698 0.007249 0.091044
v -0.022498 0.072048 0.090144
v -0.023498 -0.009851 -0.204856
v -0.021597 -0.009851 0.343344
v -0.021597 0.007249 0.343344
v -0.022598 0.072048 0.048244
v -0.022698 0.072048 0.034044
v -0.023498 0.007249 -0.204856
v 0.018402 0.007249 -0.205056
v -0.275797 -0.009851 0.049144
v -0.036698 0.072048 0.090244
v -0.036898 0.072048 0.048344
v -0.275797 0.007249 0.049144
v 0.044002 0.394449 0.040844
v -0.043198 0.394449 0.041144
v 0.043202 0.394448 -0.173556
v 0.044002 0.372549 0.040844
v 0.043202 0.372549 -0.177156
v -0.043198 0.372549 0.041144
v -0.043997 0.372549 -0.176856
v -0.043997 0.395449 -0.178856
v -0.043997 0.394448 -0.173156
v -0.044098 0.375049 -0.191456
v 0.043202 0.375049 -0.191756
v -0.044098 0.400949 -0.187856
v -0.044098 0.407148 -0.193556
v -0.044098 0.383948 -0.205956
v 0.043102 0.383948 -0.206256
v 0.043102 0.399449 -0.220856
v -0.044197 0.399449 -0.220456
v -0.044098 0.422349 -0.197856
v -0.044197 0.761149 -0.226956
v -0.044098 0.761149 -0.197856
v -0.044197 0.422349 -0.226956
v 0.043003 0.761149 -0.227256
v 0.043102 0.761149 -0.198156
v 0.043102 0.422349 -0.198156
v 0.043003 0.422349 -0.227256
v 0.043202 0.407148 -0.193856
v 0.043202 0.400949 -0.188156
v 0.043202 0.395449 -0.179156
v 0.002701 0.064048 0.108444
v -0.023598 0.065849 0.097644
v 0.002701 0.215249 0.108444
v 0.029003 0.065849 0.097444
v 0.039802 0.215249 0.071044
v 0.039802 0.065849 0.071044
v 0.029003 0.215249 0.097444
v 0.028003 0.215249 0.071044
v 0.020702 0.215249 0.089144
v 0.028803 0.215249 0.044744
v 0.020502 0.215249 0.053144
v 0.028803 0.065849 0.044744
v 0.002502 0.065849 0.033944
v 0.002502 0.215249 0.033944
v -0.023798 0.215249 0.044944
v -0.015398 0.215249 0.053244
v -0.023798 0.065849 0.044944
v 0.002502 0.215249 0.045744
v 0.020502 0.412748 0.053144
v 0.002502 0.412748 0.045744
v 0.002701 0.215249 0.096644
v -0.015297 0.215249 0.089244
v -0.023598 0.215249 0.097644
v -0.022798 0.215249 0.071244
v -0.015297 0.412748 0.089244
v -0.022798 0.412748 0.071244
v 0.002701 0.412748 0.096644
v 0.020702 0.412748 0.089144
v 0.028003 0.412748 0.071044
v -0.015398 0.412748 0.053244
v -0.034598 0.215249 0.071344
v -0.034598 0.065849 0.071344
vn -0.0000 0.9658 0.2592
vn -0.0000 0.9658 0.2591
vn 1.0000 -0.0000 -0.0000
vn -0.0000 1.0000 -0.0001
vn -0.0000 1.0000 -0.0000
vn -0.0013 0.0045 1.0000
vn -0.0000 -0.0000 1.0000
vn -0.0011 0.0034 1.0000
vn -0.0000 0.0079 1.0000
vn 0.0013 -0.0045 -1.0000
vn 0.0011 -0.0034 -1.0000
vn -0.0000 -0.0000 -1.0000
vn -0.0000 -0.0079 -1.0000
vn 0.2592 0.9658 -0.0000
vn 0.2591 0.9658 -0.0000
vn -0.0000 -1.0000 -0.0000
vn 1.0000 -0.0000 -0.0001
vn -1.0000 -0.0000 -0.0000
vn -0.0011 -0.0034 1.0000
vn -0.0013 -0.0045 1.0000
vn -1.0000 -0.0000 -0.0001
vn -0.0000 0.9658 0.2593
vn -1.0000 -0.0045 -0.0013
vn -1.0000 -0.0035 -0.0011
vn -1.0000 -0.0034 -0.0005
vn -0.0000 0.9658 -0.2592
vn 0.0014 0.0028 -1.0000
vn 0.0009 0.0049 -1.0000
vn -0.0000 0.0079 -1.0000
vn -0.2592 0.9658 -0.0000
vn -0.2591 0.9658 -0.0000
vn -0.0000 -0.0079 1.0000
vn -0.0000 -0.9969 -0.0785
vn -0.0000 -0.9940 -0.1096
vn -0.0000 -0.9569 -0.2903
vn -1.0000 0.0003 0.0010
vn -1.0000 -0.0000 0.0001
vn -1.0000 -0.0000 0.0003
vn -0.0000 -0.9125 -0.4090
vn -0.0000 -0.7778 -0.6285
vn -1.0000 0.0024 0.0062
vn -0.0000 -0.7778 -0.6286
vn -0.0000 -0.5565 -0.8308
vn -0.0000 -0.4156 -0.9095
vn 1.0000 -0.0030 -0.0017
vn 1.0000 -0.0000 0.0002
vn 1.0000 -0.0000 -0.0006
vn 1.0000 -0.0002 -0.0060
vn 1.0000 -0.0000 -0.0079
vn -0.0000 -0.1809 -0.9835
vn -0.0000 -0.1337 -0.9910
vn 1.0000 -0.0002 -0.0018
vn -0.0000 0.1337 0.9910
vn -0.0000 0.1809 0.9835
vn -0.0000 0.4156 0.9095
vn -0.0000 0.5564 0.8309
vn -0.0000 0.7708 0.6371
vn 0.0001 0.9353 0.3538
vn 0.0001 0.9354 0.3537
vn -0.0000 0.7708 0.6370
vn -0.0000 0.9940 0.1096
vn 0.0004 0.9962 0.0867
vn -0.3769 -0.0000 0.9263
vn -0.3768 -0.0000 0.9263
vn 0.3835 -0.0000 0.9235
vn 0.9263 -0.0000 0.3768
vn 0.9263 -0.0000 0.3769
vn 0.9235 -0.0000 -0.3836
vn 0.3768 -0.0000 -0.9263
vn -0.3835 -0.0000 -0.9235
vn 0.7071 -0.0000 -0.7071
vn 0.1335 0.0001 -0.9911
vn -0.1335 -0.0000 -0.9911
vn -0.7071 -0.0000 -0.7071
vn -0.7071 -0.0000 0.7071
vn -0.9910 -0.0000 0.1336
vn -0.1336 0.0001 0.9910
vn -0.9910 -0.0000 -0.1336
vn 0.1336 -0.0001 0.9910
vn 0.7149 -0.0000 0.6992
vn 0.9921 -0.0000 0.1258
vn 0.9900 -0.0000 -0.1412
vn -0.9235 -0.0000 0.3835
vn -0.9236 -0.0000 0.3835
vn -0.9263 -0.0000 -0.3768
vn -0.9263 -0.0000 -0.3769
vt 0.000000 0.000000
s 1
usemtl fake_mat_71_71_71_255
f 96/99/127 98/99/128 97/99/127
f 97/99/129 99/99/129 96/99/129
f 96/99/130 101/99/131 98/99/131
f 100/99/129 96/99/129 99/99/129
f 101/99/129 96/99/129 100/99/129
f 101/99/132 100/99/133 102/99/134
f 103/99/135 101/99/132 102/99/134
f 101/99/131 103/99/131 104/99/131
f 104/99/131 98/99/131 101/99/131
f 104/99/136 105/99/137 107/99/138
f 108/99/139 105/99/137 104/99/136
f 106/99/131 98/99/131 104/99/131
f 104/99/129 107/99/129 106/99/129
f 108/99/131 104/99/131 103/99/131
f 105/99/140 108/99/141 102/99/141
f 103/99/140 102/99/141 108/99/141
f 109/99/129 106/99/129 107/99/129
f 109/99/142 107/99/142 110/99/142
f 111/99/142 110/99/142 107/99/142
f 107/99/142 100/99/142 111/99/142
f 112/99/138 107/99/138 105/99/137
f 100/99/142 107/99/142 112/99/142
f 112/99/129 105/99/143 113/99/143
f 112/99/142 113/99/142 100/99/142
f 102/99/129 113/99/143 105/99/143
f 113/99/133 102/99/134 100/99/133
f 111/99/130 119/99/130 114/99/130
f 111/99/131 114/99/131 110/99/131
f 114/99/144 98/99/144 111/99/144
f 115/99/133 111/99/133 116/99/145
f 110/99/142 111/99/142 115/99/142
f 117/99/146 116/99/145 111/99/133
f 117/99/144 111/99/144 98/99/144
f 111/99/131 110/99/131 118/99/131
f 111/99/142 100/99/142 99/99/142
f 111/99/142 99/99/142 119/99/142
f 119/99/133 99/99/133 120/99/133
f 119/99/144 120/99/147 114/99/144
f 120/99/148 97/99/127 98/99/128
f 98/99/144 114/99/144 120/99/147
f 97/99/133 120/99/133 99/99/133
f 110/99/142 118/99/142 109/99/142
f 110/99/144 121/99/149 118/99/150
f 122/99/151 118/99/150 121/99/149
f 123/99/144 118/99/150 122/99/151
f 118/99/138 123/99/138 109/99/138
f 123/99/152 122/99/152 124/99/152
f 124/99/138 109/99/138 123/99/138
f 106/99/152 124/99/152 122/99/152
f 124/99/129 106/99/129 109/99/129
f 121/99/142 117/99/142 122/99/142
f 122/99/131 98/99/131 106/99/131
f 117/99/131 98/99/131 122/99/131
f 110/99/138 125/99/138 121/99/153
f 128/99/154 121/99/153 125/99/138
f 117/99/131 121/99/131 126/99/131
f 127/99/131 126/99/131 121/99/131
f 127/99/155 121/99/153 128/99/154
f 116/99/156 126/99/157 128/99/157
f 128/99/144 125/99/147 116/99/147
f 127/99/157 128/99/157 126/99/157
f 126/99/158 116/99/145 117/99/146
f 115/99/142 125/99/142 110/99/142
f 115/99/144 116/99/147 125/99/147
usemtl fake_mat_209_202_188_255
f 129/99/131 131/99/131 130/99/131
f 129/99/133 130/99/133 132/99/133
f 129/99/129 132/99/129 131/99/143
f 133/99/129 131/99/143 132/99/129
f 134/99/133 132/99/133 130/99/133
f 132/99/142 134/99/142 133/99/142
f 135/99/159 133/99/160 134/99/142
f 134/99/144 130/99/144 135/99/144
f 135/99/159 138/99/161 133/99/160
f 136/99/162 135/99/144 137/99/163
f 138/99/164 135/99/144 136/99/162
f 137/99/163 135/99/144 130/99/144
f 139/99/165 133/99/160 138/99/161
f 138/99/161 142/99/166 139/99/165
f 140/99/167 138/99/164 136/99/162
f 141/99/144 138/99/164 140/99/167
f 142/99/147 138/99/164 141/99/144
f 143/99/168 142/99/166 144/99/169
f 143/99/168 139/99/165 142/99/166
f 145/99/170 144/99/169 142/99/166
f 145/99/144 142/99/147 147/99/144
f 146/99/144 142/99/147 141/99/144
f 142/99/147 146/99/144 147/99/144
f 149/99/144 145/99/144 147/99/144
f 148/99/144 147/99/144 146/99/144
f 147/99/131 148/99/131 150/99/131
f 147/99/138 150/99/138 149/99/138
f 151/99/129 152/99/171 150/99/172
f 151/99/131 150/99/131 148/99/131
f 143/99/173 150/99/172 152/99/171
f 144/99/174 150/99/172 143/99/173
f 153/99/175 150/99/172 144/99/174
f 153/99/176 149/99/177 150/99/138
f 144/99/169 145/99/170 153/99/176
f 149/99/177 153/99/176 145/99/170
f 151/99/133 148/99/133 152/99/133
f 152/99/171 154/99/178 143/99/173
f 152/99/179 146/99/180 154/99/181
f 146/99/180 152/99/179 148/99/133
f 154/99/178 155/99/129 139/99/129
f 143/99/173 154/99/178 139/99/129
f 154/99/181 141/99/182 155/99/183
f 141/99/182 154/99/181 146/99/180
f 155/99/129 156/99/129 139/99/129
f 156/99/184 155/99/183 136/99/185
f 140/99/186 136/99/185 155/99/183
f 140/99/186 155/99/183 141/99/182
f 156/99/184 136/99/185 131/99/187
f 156/99/129 131/99/143 133/99/129
f 139/99/129 156/99/129 133/99/129
f 137/99/188 130/99/131 131/99/187
f 137/99/188 131/99/187 136/99/185
f 157/99/189 159/99/190 158/99/190
f 157/99/191 160/99/191 159/99/191
f 163/99/191 159/99/191 160/99/191
f 163/99/192 160/99/193 161/99/192
f 162/99/192 161/99/192 160/99/193
f 159/99/131 163/99/131 165/99/131
f 164/99/131 163/99/131 166/99/131
f 165/99/131 163/99/131 164/99/131
f 161/99/131 166/99/131 163/99/131
f 170/99/131 167/99/131 166/99/131
f 164/99/131 166/99/131 167/99/131
f 161/99/194 162/99/194 166/99/194
f 168/99/194 166/99/194 162/99/194
f 168/99/195 169/99/195 166/99/195
f 170/99/195 166/99/195 169/99/195
f 171/99/196 170/99/196 173/99/196
f 171/99/131 172/99/131 170/99/131
f 174/99/131 167/99/131 170/99/131
f 172/99/131 174/99/131 170/99/131
f 169/99/196 173/99/196 170/99/196
f 167/99/197 174/99/198 175/99/197
f 174/99/131 177/99/131 167/99/131
f 176/99/199 175/99/197 174/99/198
f 174/99/198 172/99/200 176/99/199
f 172/99/131 178/99/131 174/99/131
f 178/99/131 177/99/131 174/99/131
f 178/99/131 179/99/131 177/99/131
f 180/99/131 179/99/131 178/99/131
f 178/99/201 181/99/201 180/99/202
f 180/99/131 178/99/131 172/99/131
f 178/99/201 177/99/203 181/99/201
f 182/99/204 180/99/202 181/99/201
f 183/99/205 181/99/201 177/99/203
f 177/99/203 165/99/206 183/99/205
f 184/99/206 183/99/205 165/99/206
f 184/99/206 165/99/206 185/99/207
f 185/99/207 164/99/208 175/99/197
f 164/99/208 185/99/207 165/99/206
f 180/99/202 182/99/204 172/99/200
f 186/99/200 172/99/200 182/99/204
f 186/99/200 176/99/199 172/99/200
f 179/99/131 180/99/131 171/99/131
f 180/99/131 172/99/131 171/99/131
f 179/99/190 158/99/190 159/99/190
f 179/99/131 159/99/131 177/99/131
f 179/99/209 187/99/209 158/99/209
f 187/99/131 179/99/131 171/99/131
f 188/99/210 158/99/210 187/99/210
f 187/99/211 171/99/211 188/99/211
f 173/99/212 188/99/212 171/99/212
f 177/99/131 165/99/131 167/99/131
f 177/99/131 159/99/131 165/99/131
f 167/99/197 175/99/197 164/99/208
f 164/99/131 167/99/131 165/99/131
